<?xml version="1.0" encoding="UTF-8"?>
<svg width="256" height="256" viewBox="0 0 256 256" xmlns="http://www.w3.org/2000/svg">
  <defs>
    <clipPath id="frontClip">
      <rect x="44" y="84" width="168" height="132" rx="22" ry="22"/>
    </clipPath>
  </defs>

  <!-- Base cooler shadow/back -->
  <rect x="38" y="78" width="180" height="144" rx="26" fill="#24483E"/>

  <!-- Cooler body -->
  <rect x="44" y="84" width="168" height="132" rx="22" fill="#2F5D50"/>

  <!-- Rugged corner bumpers -->
  <path d="M54 92 h20 v16 h-20 z" fill="#374151"/>
  <path d="M182 92 h20 v16 h-20 z" fill="#374151"/>
  <path d="M54 198 h20 v16 h-20 z" fill="#374151"/>
  <path d="M182 198 h20 v16 h-20 z" fill="#374151"/>

  <!-- Lid -->
  <rect x="44" y="70" width="168" height="40" rx="20" fill="#4B5563"/>
  <rect x="50" y="76" width="156" height="28" rx="14" fill="#374151"/>

  <!-- Handle -->
  <path d="M96 64
           c0-14 64-14 64 0
           v12
           c0 6-6 10-12 10
           h-40
           c-6 0-12-4-12-10
           z" fill="#4B5563"/>
  <path d="M106 72
           c0-6 44-6 44 0
           v8
           c0 3-3 6-6 6
           h-32
           c-3 0-6-3-6-6
           z" fill="#374151"/>

  <!-- Latch -->
  <rect x="116" y="104" width="24" height="28" rx="6" fill="#374151"/>
  <rect x="120" y="108" width="16" height="20" rx="4" fill="#8ED1E8"/>

  <!-- Front details (mountain/compass mark) -->
  <g clip-path="url(#frontClip)">
    <!-- subtle plate -->
    <rect x="64" y="140" width="88" height="54" rx="14" fill="#24483E" opacity="0.28"/>

    <!-- mountain -->
    <path d="M80 186 L106 152 L122 170 L136 152 L160 186 Z" fill="#374151"/>
    <!-- compass needle -->
    <path d="M128 146 L134 162 L128 170 L122 162 Z" fill="#8ED1E8"/>
    <circle cx="128" cy="162" r="6" fill="#374151"/>
    <circle cx="128" cy="162" r="3" fill="#8ED1E8"/>
  </g>

  <!-- BLE glyph (clean, integrated) -->
  <g transform="translate(160,140)">
    <!-- rounded badge -->
    <rect x="0" y="0" width="54" height="62" rx="14" fill="#374151" opacity="0.95"/>
    <!-- BLE symbol -->
    <path d="M22 10
             v42
             l14-14
             l-14-14
             l14-14
             z" fill="#8ED1E8"/>
    <path d="M22 10
             l18 18
             M22 26
             l18 18
             M22 26
             l18 -18
             M22 42
             l18 -18" stroke="#8ED1E8" stroke-width="6" stroke-linecap="round"/>
    <!-- small 'LE' hint as dots (no text) -->
    <circle cx="10" cy="20" r="3" fill="#8ED1E8"/>
    <circle cx="10" cy="34" r="3" fill="#8ED1E8"/>
    <circle cx="10" cy="48" r="3" fill="#8ED1E8"/>
  </g>
</svg>
